<?xml version="1.0" encoding="UTF-8"?>
<svg width="166px" height="35px" viewBox="0 0 166 35" version="1.1" xmlns="http://www.w3.org/2000/svg" xmlns:xlink="http://www.w3.org/1999/xlink">
    <!-- Generator: Sketch 53.1 (72631) - https://sketchapp.com -->
    <title>fayerwayer</title>
    <desc>Created with Sketch.</desc>
    <g id="Page-1" stroke="none" stroke-width="1" fill="none" fill-rule="evenodd">
        <g id="fayerwayer" fill="#FF3200">
            <path d="M161.056726,16.6587611 C163.392478,16.6587611 165.640088,18.5684956 165.632743,20.9262832 C165.625398,23.2840708 163.392478,25.2158407 161.027345,25.2158407 C158.662212,25.2158407 157.14177,23.3061062 157.134425,20.9262832 C157.12708,18.5464602 158.654867,16.6587611 161.027345,16.6587611 L161.056726,16.6587611 Z M161.144867,17.7899115 C159.506903,17.7899115 158.478584,19.1781416 158.478584,20.9556637 C158.478584,22.7331858 159.506903,24.0920354 161.174248,24.0920354 C162.914532,24.0920353 164.32531,22.6812569 164.32531,20.9409735 C164.32531,19.20069 162.914532,17.7899116 161.174248,17.7899115 L161.144867,17.7899115 Z M160.851062,22.8800885 L159.66115,22.8800885 C159.760331,21.6137679 159.760331,20.3416303 159.66115,19.0753097 C160.196854,18.9777034 160.739925,18.9260994 161.284425,18.9210619 C161.794541,18.879036 162.305685,18.9889318 162.753451,19.2369027 C163.028984,19.4292312 163.191297,19.7456042 163.186814,20.0815929 C163.186814,20.4268142 162.863628,20.8161062 162.334779,20.9262832 L162.334779,20.9776991 C162.769726,21.1290393 163.072929,21.524648 163.106018,21.9839823 C163.143246,22.2871011 163.204651,22.586758 163.289646,22.8800885 L161.967522,22.8800885 C161.859447,22.6475573 161.787612,22.3998495 161.754513,22.1455752 C161.717788,21.7709735 161.534159,21.5873451 161.225664,21.5873451 L160.880442,21.5873451 C160.90003,22.0084661 160.892685,22.4393805 160.858407,22.8800885 L160.851062,22.8800885 Z M160.975929,20.6765487 L161.269735,20.6765487 C161.666372,20.6765487 161.872035,20.4929204 161.86469,20.2578761 C161.857345,20.0228319 161.59292,19.8318584 161.299115,19.8318584 L160.953894,19.8318584 C160.968584,20.1305605 160.975929,20.4145722 160.975929,20.6838938 L160.975929,20.6765487 Z" id="Shape" fill-rule="nonzero"></path>
            <path d="M3.90761062,0 L15.4247788,0 C15.380708,1.66979351 15.2950147,3.34448377 15.1676991,5.0240708 L9.50460177,5.0240708 C9.34300885,6.98522124 9.13,8.95371681 8.85088496,10.900177 L14.2862832,10.900177 C14.0732743,12.5087611 13.830885,14.1173451 13.5517699,15.7332743 L8.18982301,15.7332743 C7.56490308,19.2481068 6.76326713,22.729217 5.7879646,26.1633628 L0,26.1633628 C2.40769775,17.6434383 3.72079321,8.85162248 3.90761062,2.17119832e-15 L3.90761062,0 Z" id="Shape"></path>
            <path d="M24.1067257,26.1853982 C24.2315929,25.179115 24.349115,24.1654867 24.4446018,23.1518584 L24.290354,23.1518584 C22.8213274,25.4068142 20.7720354,26.4938938 19.2222124,26.4938938 C16.1960177,26.4938938 15.0942478,23.9304425 15.2044248,20.6177876 C15.5055752,14.8077876 17.5548673,6.71345133 26.0384956,6.72079646 C27.9895788,6.71871503 29.930195,7.00584704 31.7970796,7.57283186 C31.4337959,11.1146536 30.8870735,14.635252 30.159115,18.1204425 C29.7404425,20.1917699 29.1969027,24.1214159 28.9912389,26.2000885 L24.1067257,26.1853982 Z M25.7814159,11.0176991 C25.4716513,10.9535623 25.1572598,10.9142633 24.8412389,10.900177 C22.1382301,10.900177 20.9409735,17.0553982 20.8307965,19.2736283 C20.8307965,20.639823 20.9042478,21.7709735 22.0721239,21.7709735 C23.1077876,21.7709735 24.1507965,20.3019469 24.8118584,16.9378761 C25.1938053,14.9840708 25.5169912,13.0155752 25.7814159,11.0176991 Z" id="Shape" fill-rule="nonzero"></path>
            <path d="M39.230354,7.03663717 C39.5192625,9.88654867 39.6637168,12.741357 39.6637168,15.6010619 C39.7159445,17.070264 39.6938809,18.541167 39.5976106,20.0081416 L39.6637168,20.0081416 C40.0456637,18.4876991 40.3982301,17.2830973 40.9931858,15.1015929 C41.7570796,12.3985841 42.4058997,9.70536871 42.939646,7.0219469 L48.690885,7.0219469 C47.087052,12.0964276 45.1636799,17.0643211 42.9323009,21.8958407 C40.8242478,26.3029204 38.0918584,30.0489381 35.5210619,32.1790265 C34.3774004,33.1351579 33.1037755,33.9240634 31.7383186,34.5221239 C31.248643,32.979646 30.7173451,31.4347198 30.1444248,29.8873451 C31.0439965,29.4672981 31.9085753,28.9760601 32.7299115,28.4183186 C33.7950698,27.7712158 34.7032414,26.8956581 35.3888496,25.8548673 C35.5106298,25.6295807 35.5713998,25.376372 35.5651327,25.120354 C35.3182143,19.0299304 34.5316524,12.9734037 33.2146903,7.0219469 L39.230354,7.03663717 Z" id="Shape"></path>
            <path d="M60.4210619,25.4068142 C58.4985022,26.1355177 56.4535943,26.4871421 54.3980531,26.4424779 C49.3813274,26.4424779 47.7360177,23.3354867 47.7874336,19.0973451 C47.9490265,13.3607965 50.4169912,6.75017699 56.7558407,6.75752212 C58.2929136,6.70205557 59.7887167,7.2614392 60.9122161,8.31187664 C62.0357154,9.36231406 62.6942656,10.8171847 62.7421239,12.3545133 C62.969823,17.8486726 58.5700885,19.7951327 53.2522124,19.5600885 C53.2047285,20.1203328 53.3999871,20.6740113 53.7884071,21.080531 C54.4499482,21.723632 55.3497161,22.0617105 56.2710619,22.0133628 C57.6959933,22.0260917 59.1042996,21.7067079 60.3843363,21.080531 C60.4382006,22.5152802 60.4504425,23.9573747 60.4210619,25.4068142 Z M57.7841593,12.8686726 C57.7400885,11.899115 57.3140708,11.3115044 56.4620354,11.3115044 C55.059115,11.3115044 54.0528319,13.1037168 53.7810619,15.2852212 C56.1535398,15.439469 57.8502655,14.4258407 57.7841593,12.9127434 L57.7841593,12.8686726 Z" id="Shape" fill-rule="nonzero"></path>
            <path d="M62.2573451,26.1853982 C63.4603748,21.9019483 64.3950217,17.5476219 65.0558407,13.1477876 C65.3569912,11.120531 65.5112389,8.98309735 65.6214159,7.03663717 L70.5132743,7.03663717 L70.5132743,10.070177 L70.6675221,10.070177 C71.9602655,7.61690265 73.6055752,6.72814159 75.0746018,6.72814159 C75.3796547,6.72670599 75.6835192,6.76623311 75.9780531,6.84566372 C75.809115,8.7480531 75.5961062,10.6504425 75.3243363,12.560177 C75.0010013,12.5103535 74.6745601,12.4833546 74.3474336,12.4793805 C72.4009735,12.4793805 70.5940708,14.4699115 69.940354,17.8560177 C69.4164012,20.6422714 68.7700295,23.4187315 68.0012389,26.1853982 L62.2573451,26.1853982 Z" id="Shape"></path>
            <path d="M76.6538053,26.1853982 C77.8093754,17.4958218 77.8192531,8.69214775 76.6831858,-3.55271368e-15 L82.6621239,-3.55271368e-15 C82.8985615,3.36348566 82.9623033,6.73688594 82.8530973,10.1069027 C82.7576106,13.1404425 82.4931858,16.2180531 82.1185841,19.3397345 L82.1920354,19.3397345 C82.9926549,16.2180531 83.8520354,13.5297345 84.6746903,10.7312389 C85.7116071,7.20021225 86.5672085,3.61845197 87.2381416,-7.72560481e-16 L92.4384956,-7.72560481e-16 C92.8290958,3.33098951 93.0472925,6.67993942 93.0922124,10.0334513 C93.1535112,13.1433661 92.9890382,16.2536293 92.6000885,19.3397345 L92.6735398,19.3397345 C93.4741593,16.2180531 94.2380531,13.1845133 94.8330088,10.459469 C95.5871094,6.95828908 96.1624779,3.47179941 96.559115,-7.72560481e-16 L102.141416,-3.55271368e-15 C100.543313,9.01265012 97.8778572,17.8029807 94.2013274,26.1853982 L88.0681416,26.1853982 C88.2689083,24.1287611 88.4011207,22.0672271 88.4647788,20.0007965 C88.6043363,16.7248673 88.699823,13.2946903 88.8614159,10.5769912 L88.7806195,10.5769912 C87.8687367,14.0941136 86.6395052,17.5212108 85.1080531,20.8161062 C84.2609147,22.6083186 83.3721536,24.3980826 82.4417699,26.1853982 L76.6538053,26.1853982 Z" id="Shape"></path>
            <path d="M109.493894,26.1853982 C109.626106,25.179115 109.736283,24.1654867 109.83177,23.1518584 L109.677522,23.1518584 C108.208496,25.4068142 106.159204,26.4938938 104.616726,26.4938938 C101.583186,26.4938938 100.488761,23.9304425 100.598938,20.6177876 C100.900088,14.8077876 102.942035,6.71345133 111.433009,6.72079646 C113.381646,6.71922449 115.319766,7.00635332 117.184248,7.57283186 C116.823457,11.1145326 116.279186,14.6351333 115.553628,18.1204425 C115.134956,20.1917699 114.591416,24.1214159 114.385752,26.2000885 L109.493894,26.1853982 Z M111.168584,11.0176991 C110.861212,10.9540694 110.549302,10.9147736 110.235752,10.900177 C107.525398,10.900177 106.335487,17.0553982 106.22531,19.2736283 C106.22531,20.639823 106.298761,21.7709735 107.459292,21.7709735 C108.494956,21.7709735 109.537965,20.3019469 110.199027,16.9378761 C110.580973,14.9840708 110.911504,13.0155752 111.168584,11.0176991 Z" id="Shape" fill-rule="nonzero"></path>
            <path d="M124.624867,7.03663717 C124.889292,9.88654867 125.031298,12.741357 125.050885,15.6010619 C125.105048,17.0701464 125.085436,18.5410235 124.992124,20.0081416 L125.065575,20.0081416 C125.454867,18.4876991 125.800088,17.2830973 126.402389,15.1015929 C127.15649,12.3985841 127.80531,9.70536871 128.34885,7.0219469 L134.092743,7.0219469 C132.495378,12.0986969 130.571848,17.0669988 128.334159,21.8958407 C126.233451,26.3029204 123.501062,30.0489381 120.92292,32.1790265 C119.77632,33.1404847 118.497421,33.9320665 117.125487,34.529469 C116.635811,32.9869912 116.106961,31.4420649 115.538938,29.8946903 C116.435338,29.4730456 117.297353,28.9818694 118.11708,28.4256637 C119.185449,27.7827371 120.094466,26.9063647 120.776018,25.8622124 C120.902642,25.6388077 120.963738,25.3842385 120.952301,25.1276991 C120.707875,19.0374885 119.923771,12.9809575 118.609204,7.02929204 L124.624867,7.03663717 Z" id="Shape"></path>
            <path d="M145.80823,25.4068142 C143.884528,26.129254 141.839422,26.4734305 139.785221,26.4204425 C134.768496,26.4204425 133.123186,23.3134513 133.174602,19.0753097 C133.336195,13.3387611 135.804159,6.72814159 142.143009,6.73548673 C143.679368,6.68003411 145.174394,7.23964253 146.296729,8.29028048 C147.419065,9.34091835 148.076005,10.7958044 148.121947,12.3324779 C148.356991,17.8266372 143.949912,19.7730973 138.632035,19.5380531 C138.588338,20.0978066 138.783066,20.6499832 139.16823,21.0584956 C139.833962,21.6996919 140.735072,22.0372758 141.65823,21.9913274 C143.083075,22.0032491 144.491198,21.6839068 145.771504,21.0584956 C145.830265,22.5079351 145.842508,23.9573747 145.80823,25.4068142 Z M143.171327,12.8686726 C143.127257,11.899115 142.701239,11.3115044 141.849204,11.3115044 C140.453628,11.3115044 139.44,13.1037168 139.175575,15.2852212 C141.540708,15.439469 143.237434,14.4258407 143.171327,12.9127434 L143.171327,12.8686726 Z" id="Shape" fill-rule="nonzero"></path>
            <path d="M147.637168,26.1853982 C148.843669,21.9028081 149.778363,17.5482624 150.435664,13.1477876 C150.736814,11.120531 150.898407,8.98309735 151.008584,7.03663717 L155.900442,7.03663717 L155.900442,10.070177 L156.05469,10.070177 C157.354779,7.61690265 158.992743,6.72814159 160.46177,6.72814159 C160.766823,6.72670599 161.070687,6.76623311 161.365221,6.84566372 C161.203628,8.75050145 160.985722,10.6553393 160.711504,12.560177 C160.388169,12.5103535 160.061728,12.4833546 159.734602,12.4793805 C157.788142,12.4793805 155.981239,14.4699115 155.327522,17.8560177 C154.80357,20.6422714 154.159646,23.4187315 153.395752,26.1853982 L147.637168,26.1853982 Z" id="Shape"></path>
        </g>
    </g>
</svg>