<svg xmlns:xlink="http://www.w3.org/1999/xlink" width="76.846ex" height="5.176ex" style="font-size: 15px; vertical-align: -2.005ex;" viewBox="0 -1365.4 33086.2 2228.5" role="img" focusable="false" xmlns="http://www.w3.org/2000/svg">
<defs>
<path stroke-width="1" id="E1-MJMAIN-28" d="M94 250Q94 319 104 381T127 488T164 576T202 643T244 695T277 729T302 750H315H319Q333 750 333 741Q333 738 316 720T275 667T226 581T184 443T167 250T184 58T225 -81T274 -167T316 -220T333 -241Q333 -250 318 -250H315H302L274 -226Q180 -141 137 -14T94 250Z"></path>
<path stroke-width="1" id="E1-MJMAIN-35" d="M164 157Q164 133 148 117T109 101H102Q148 22 224 22Q294 22 326 82Q345 115 345 210Q345 313 318 349Q292 382 260 382H254Q176 382 136 314Q132 307 129 306T114 304Q97 304 95 310Q93 314 93 485V614Q93 664 98 664Q100 666 102 666Q103 666 123 658T178 642T253 634Q324 634 389 662Q397 666 402 666Q410 666 410 648V635Q328 538 205 538Q174 538 149 544L139 546V374Q158 388 169 396T205 412T256 420Q337 420 393 355T449 201Q449 109 385 44T229 -22Q148 -22 99 32T50 154Q50 178 61 192T84 210T107 214Q132 214 148 197T164 157Z"></path>
<path stroke-width="1" id="E1-MJMAIN-2E" d="M78 60Q78 84 95 102T138 120Q162 120 180 104T199 61Q199 36 182 18T139 0T96 17T78 60Z"></path>
<path stroke-width="1" id="E1-MJMAIN-33" d="M127 463Q100 463 85 480T69 524Q69 579 117 622T233 665Q268 665 277 664Q351 652 390 611T430 522Q430 470 396 421T302 350L299 348Q299 347 308 345T337 336T375 315Q457 262 457 175Q457 96 395 37T238 -22Q158 -22 100 21T42 130Q42 158 60 175T105 193Q133 193 151 175T169 130Q169 119 166 110T159 94T148 82T136 74T126 70T118 67L114 66Q165 21 238 21Q293 21 321 74Q338 107 338 175V195Q338 290 274 322Q259 328 213 329L171 330L168 332Q166 335 166 348Q166 366 174 366Q202 366 232 371Q266 376 294 413T322 525V533Q322 590 287 612Q265 626 240 626Q208 626 181 615T143 592T132 580H135Q138 579 143 578T153 573T165 566T175 555T183 540T186 520Q186 498 172 481T127 463Z"></path>
<path stroke-width="1" id="E1-MJMAIN-31" d="M213 578L200 573Q186 568 160 563T102 556H83V602H102Q149 604 189 617T245 641T273 663Q275 666 285 666Q294 666 302 660V361L303 61Q310 54 315 52T339 48T401 46H427V0H416Q395 3 257 3Q121 3 100 0H88V46H114Q136 46 152 46T177 47T193 50T201 52T207 57T213 61V578Z"></path>
<path stroke-width="1" id="E1-MJMAIN-37" d="M55 458Q56 460 72 567L88 674Q88 676 108 676H128V672Q128 662 143 655T195 646T364 644H485V605L417 512Q408 500 387 472T360 435T339 403T319 367T305 330T292 284T284 230T278 162T275 80Q275 66 275 52T274 28V19Q270 2 255 -10T221 -22Q210 -22 200 -19T179 0T168 40Q168 198 265 368Q285 400 349 489L395 552H302Q128 552 119 546Q113 543 108 522T98 479L95 458V455H55V458Z"></path>
<path stroke-width="1" id="E1-MJMAIN-29" d="M60 749L64 750Q69 750 74 750H86L114 726Q208 641 251 514T294 250Q294 182 284 119T261 12T224 -76T186 -143T145 -194T113 -227T90 -246Q87 -249 86 -250H74Q66 -250 63 -250T58 -247T55 -238Q56 -237 66 -225Q221 -64 221 250T66 725Q56 737 55 738Q55 746 60 749Z"></path>
<path stroke-width="1" id="E1-MJMATHI-77" d="M580 385Q580 406 599 424T641 443Q659 443 674 425T690 368Q690 339 671 253Q656 197 644 161T609 80T554 12T482 -11Q438 -11 404 5T355 48Q354 47 352 44Q311 -11 252 -11Q226 -11 202 -5T155 14T118 53T104 116Q104 170 138 262T173 379Q173 380 173 381Q173 390 173 393T169 400T158 404H154Q131 404 112 385T82 344T65 302T57 280Q55 278 41 278H27Q21 284 21 287Q21 293 29 315T52 366T96 418T161 441Q204 441 227 416T250 358Q250 340 217 250T184 111Q184 65 205 46T258 26Q301 26 334 87L339 96V119Q339 122 339 128T340 136T341 143T342 152T345 165T348 182T354 206T362 238T373 281Q402 395 406 404Q419 431 449 431Q468 431 475 421T483 402Q483 389 454 274T422 142Q420 131 420 107V100Q420 85 423 71T442 42T487 26Q558 26 600 148Q609 171 620 213T632 273Q632 306 619 325T593 357T580 385Z"></path>
<path stroke-width="1" id="E1-MJMAIN-2192" d="M56 237T56 250T70 270H835Q719 357 692 493Q692 494 692 496T691 499Q691 511 708 511H711Q720 511 723 510T729 506T732 497T735 481T743 456Q765 389 816 336T935 261Q944 258 944 250Q944 244 939 241T915 231T877 212Q836 186 806 152T761 85T740 35T732 4Q730 -6 727 -8T711 -11Q691 -11 691 0Q691 7 696 25Q728 151 835 230H70Q56 237 56 250Z"></path>
<path stroke-width="1" id="E1-MJMAIN-3A" d="M78 370Q78 394 95 412T138 430Q162 430 180 414T199 371Q199 346 182 328T139 310T96 327T78 370ZM78 60Q78 84 95 102T138 120Q162 120 180 104T199 61Q199 36 182 18T139 0T96 17T78 60Z"></path>
<path stroke-width="1" id="E1-MJAMS-52" d="M17 665Q17 672 28 683H221Q415 681 439 677Q461 673 481 667T516 654T544 639T566 623T584 607T597 592T607 578T614 565T618 554L621 548Q626 530 626 497Q626 447 613 419Q578 348 473 326L455 321Q462 310 473 292T517 226T578 141T637 72T686 35Q705 30 705 16Q705 7 693 -1H510Q503 6 404 159L306 310H268V183Q270 67 271 59Q274 42 291 38Q295 37 319 35Q344 35 353 28Q362 17 353 3L346 -1H28Q16 5 16 16Q16 35 55 35Q96 38 101 52Q106 60 106 341T101 632Q95 645 55 648Q17 648 17 665ZM241 35Q238 42 237 45T235 78T233 163T233 337V621L237 635L244 648H133Q136 641 137 638T139 603T141 517T141 341Q141 131 140 89T134 37Q133 36 133 35H241ZM457 496Q457 540 449 570T425 615T400 634T377 643Q374 643 339 648Q300 648 281 635Q271 628 270 610T268 481V346H284Q327 346 375 352Q421 364 439 392T457 496ZM492 537T492 496T488 427T478 389T469 371T464 361Q464 360 465 360Q469 360 497 370Q593 400 593 495Q593 592 477 630L457 637L461 626Q474 611 488 561Q492 537 492 496ZM464 243Q411 317 410 317Q404 317 401 315Q384 315 370 312H346L526 35H619L606 50Q553 109 464 243Z"></path>
<path stroke-width="1" id="E1-MJMAIN-D7" d="M630 29Q630 9 609 9Q604 9 587 25T493 118L389 222L284 117Q178 13 175 11Q171 9 168 9Q160 9 154 15T147 29Q147 36 161 51T255 146L359 250L255 354Q174 435 161 449T147 471Q147 480 153 485T168 490Q173 490 175 489Q178 487 284 383L389 278L493 382Q570 459 587 475T609 491Q630 491 630 471Q630 464 620 453T522 355L418 250L522 145Q606 61 618 48T630 29Z"></path>
<path stroke-width="1" id="E1-MJAMS-43" d="M684 131Q684 125 672 109T633 71T573 29T489 -5T386 -19Q330 -19 276 -3T174 46T91 134T44 261Q39 283 39 341T44 421Q66 538 143 611T341 699Q344 699 364 700T395 701Q449 698 503 677T585 655Q603 655 611 662T620 678T625 694T639 702Q650 702 657 690V481L653 474Q640 467 628 472Q624 476 618 496T595 541Q562 587 507 625T390 663H381Q337 663 299 625Q212 547 212 336Q212 249 233 179Q274 30 405 30Q533 30 641 130Q658 147 666 147Q671 147 677 143T684 131ZM250 625Q264 643 261 643Q238 635 214 620T161 579T110 510T79 414Q74 384 74 341T79 268Q89 213 113 169T164 101T217 61T260 39L277 34Q270 41 264 48Q199 111 181 254Q178 281 178 344T181 434Q200 559 250 625ZM621 565V625Q617 623 613 623Q603 619 590 619H575L588 605Q608 583 610 579L621 565Z"></path>
<path stroke-width="1" id="E1-MJMAIN-2C" d="M78 35T78 60T94 103T137 121Q165 121 187 96T210 8Q210 -27 201 -60T180 -117T154 -158T130 -185T117 -194Q113 -194 104 -185T95 -172Q95 -168 106 -156T131 -126T157 -76T173 -3V9L172 8Q170 7 167 6T161 3T152 1T140 0Q113 0 96 17Z"></path>
<path stroke-width="1" id="E1-MJMATHI-75" d="M21 287Q21 295 30 318T55 370T99 420T158 442Q204 442 227 417T250 358Q250 340 216 246T182 105Q182 62 196 45T238 27T291 44T328 78L339 95Q341 99 377 247Q407 367 413 387T427 416Q444 431 463 431Q480 431 488 421T496 402L420 84Q419 79 419 68Q419 43 426 35T447 26Q469 29 482 57T512 145Q514 153 532 153Q551 153 551 144Q550 139 549 130T540 98T523 55T498 17T462 -8Q454 -10 438 -10Q372 -10 347 46Q345 45 336 36T318 21T296 6T267 -6T233 -11Q189 -11 155 7Q103 38 103 113Q103 170 138 262T173 379Q173 380 173 381Q173 390 173 393T169 400T158 404H154Q131 404 112 385T82 344T65 302T57 280Q55 278 41 278H27Q21 284 21 287Z"></path>
<path stroke-width="1" id="E1-MJMAIN-49" d="M328 0Q307 3 180 3T32 0H21V46H43Q92 46 106 49T126 60Q128 63 128 342Q128 620 126 623Q122 628 118 630T96 635T43 637H21V683H32Q53 680 180 680T328 683H339V637H317Q268 637 254 634T234 623Q232 620 232 342Q232 63 234 60Q238 55 242 53T264 48T317 46H339V0H328Z"></path>
<path stroke-width="1" id="E1-MJMAIN-64" d="M376 495Q376 511 376 535T377 568Q377 613 367 624T316 637H298V660Q298 683 300 683L310 684Q320 685 339 686T376 688Q393 689 413 690T443 693T454 694H457V390Q457 84 458 81Q461 61 472 55T517 46H535V0Q533 0 459 -5T380 -11H373V44L365 37Q307 -11 235 -11Q158 -11 96 50T34 215Q34 315 97 378T244 442Q319 442 376 393V495ZM373 342Q328 405 260 405Q211 405 173 369Q146 341 139 305T131 211Q131 155 138 120T173 59Q203 26 251 26Q322 26 373 103V342Z"></path>
<path stroke-width="1" id="E1-MJMATHI-4D" d="M289 629Q289 635 232 637Q208 637 201 638T194 648Q194 649 196 659Q197 662 198 666T199 671T201 676T203 679T207 681T212 683T220 683T232 684Q238 684 262 684T307 683Q386 683 398 683T414 678Q415 674 451 396L487 117L510 154Q534 190 574 254T662 394Q837 673 839 675Q840 676 842 678T846 681L852 683H948Q965 683 988 683T1017 684Q1051 684 1051 673Q1051 668 1048 656T1045 643Q1041 637 1008 637Q968 636 957 634T939 623Q936 618 867 340T797 59Q797 55 798 54T805 50T822 48T855 46H886Q892 37 892 35Q892 19 885 5Q880 0 869 0Q864 0 828 1T736 2Q675 2 644 2T609 1Q592 1 592 11Q592 13 594 25Q598 41 602 43T625 46Q652 46 685 49Q699 52 704 61Q706 65 742 207T813 490T848 631L654 322Q458 10 453 5Q451 4 449 3Q444 0 433 0Q418 0 415 7Q413 11 374 317L335 624L267 354Q200 88 200 79Q206 46 272 46H282Q288 41 289 37T286 19Q282 3 278 1Q274 0 267 0Q265 0 255 0T221 1T157 2Q127 2 95 1T58 0Q43 0 39 2T35 11Q35 13 38 25T43 40Q45 46 65 46Q135 46 154 86Q158 92 223 354T289 629Z"></path>
<path stroke-width="1" id="E1-MJMATHI-55" d="M107 637Q73 637 71 641Q70 643 70 649Q70 673 81 682Q83 683 98 683Q139 681 234 681Q268 681 297 681T342 682T362 682Q378 682 378 672Q378 670 376 658Q371 641 366 638H364Q362 638 359 638T352 638T343 637T334 637Q295 636 284 634T266 623Q265 621 238 518T184 302T154 169Q152 155 152 140Q152 86 183 55T269 24Q336 24 403 69T501 205L552 406Q599 598 599 606Q599 633 535 637Q511 637 511 648Q511 650 513 660Q517 676 519 679T529 683Q532 683 561 682T645 680Q696 680 723 681T752 682Q767 682 767 672Q767 650 759 642Q756 637 737 637Q666 633 648 597Q646 592 598 404Q557 235 548 205Q515 105 433 42T263 -22Q171 -22 116 34T60 167V183Q60 201 115 421Q164 622 164 628Q164 635 107 637Z"></path>
<path stroke-width="1" id="E1-MJSZ2-28" d="M180 96T180 250T205 541T266 770T353 944T444 1069T527 1150H555Q561 1144 561 1141Q561 1137 545 1120T504 1072T447 995T386 878T330 721T288 513T272 251Q272 133 280 56Q293 -87 326 -209T399 -405T475 -531T536 -609T561 -640Q561 -643 555 -649H527Q483 -612 443 -568T353 -443T266 -270T205 -41Z"></path>
<path stroke-width="1" id="E1-MJSZ2-29" d="M35 1138Q35 1150 51 1150H56H69Q113 1113 153 1069T243 944T330 771T391 541T416 250T391 -40T330 -270T243 -443T152 -568T69 -649H56Q43 -649 39 -647T35 -637Q65 -607 110 -548Q283 -316 316 56Q324 133 324 251Q324 368 316 445Q278 877 48 1123Q36 1137 35 1138Z"></path>
<path stroke-width="1" id="E1-MJMAIN-21A6" d="M95 155V109Q95 83 92 73T75 63Q61 63 58 74T54 130Q54 140 54 180T55 250Q55 421 57 425Q61 437 75 437Q88 437 91 428T95 393V345V270H835Q719 357 692 493Q692 494 692 496T691 499Q691 511 708 511H711Q720 511 723 510T729 506T732 497T735 481T743 456Q765 389 816 336T935 261Q944 258 944 250Q944 244 939 241T915 231T877 212Q836 186 806 152T761 85T740 35T732 4Q730 -6 727 -8T711 -11Q691 -11 691 0Q691 7 696 25Q728 151 835 230H95V155Z"></path>
<path stroke-width="1" id="E1-MJMAIN-2661" d="M55 490Q55 557 71 604T114 674T167 706T222 716Q279 716 322 684T389 605Q391 610 395 617T414 643T447 677T494 704T555 716Q642 716 682 652T723 490Q723 455 718 426T684 342T602 227Q573 196 537 161T485 110T449 63T412 -8Q408 -22 404 -27T389 -33Q382 -33 379 -31T372 -23T366 -8T355 18T335 54Q319 81 298 104T239 163T176 227Q102 310 79 371T55 490ZM198 674Q143 664 119 613T95 491Q95 415 137 346Q174 282 265 194T384 48L389 39Q391 42 397 54T406 71T415 86T427 104T442 122T464 146T491 172Q571 249 613 303Q683 396 683 487Q683 581 649 631Q613 676 556 676Q495 676 457 634T410 538Q407 514 390 514Q386 514 380 517Q372 520 369 536T355 581T319 635Q277 675 223 675H217H208L204 674Q200 674 198 674Z"></path>
<path stroke-width="1" id="E1-MJMAIN-3D" d="M56 347Q56 360 70 367H707Q722 359 722 347Q722 336 708 328L390 327H72Q56 332 56 347ZM56 153Q56 168 72 173H708Q722 163 722 153Q722 140 707 133H70Q56 140 56 153Z"></path>
<path stroke-width="1" id="E1-MJMATHI-69" d="M184 600Q184 624 203 642T247 661Q265 661 277 649T290 619Q290 596 270 577T226 557Q211 557 198 567T184 600ZM21 287Q21 295 30 318T54 369T98 420T158 442Q197 442 223 419T250 357Q250 340 236 301T196 196T154 83Q149 61 149 51Q149 26 166 26Q175 26 185 29T208 43T235 78T260 137Q263 149 265 151T282 153Q302 153 302 143Q302 135 293 112T268 61T223 11T161 -11Q129 -11 102 10T74 74Q74 91 79 106T122 220Q160 321 166 341T173 380Q173 404 156 404H154Q124 404 99 371T61 287Q60 286 59 284T58 281T56 279T53 278T49 278T41 278H27Q21 284 21 287Z"></path>
<path stroke-width="1" id="E1-MJMAIN-2662" d="M370 714Q370 717 375 722T388 727Q398 727 403 721T417 697Q420 692 421 689Q536 465 709 304Q723 291 723 282T709 260Q529 93 406 -153Q402 -162 390 -162H389Q379 -162 376 -158T357 -125Q247 89 89 241L64 265Q55 272 55 282Q55 287 57 290T64 300T77 312T98 331T127 361Q197 435 258 523T344 663L370 714ZM655 299Q568 384 508 470T389 662L376 638Q362 613 341 577T289 497T215 399T123 299L105 282L123 265Q210 180 270 94T389 -98L402 -74Q416 -49 437 -13T489 67T563 165T655 265L673 282L655 299Z"></path>
<path stroke-width="1" id="E1-MJMATHI-6A" d="M297 596Q297 627 318 644T361 661Q378 661 389 651T403 623Q403 595 384 576T340 557Q322 557 310 567T297 596ZM288 376Q288 405 262 405Q240 405 220 393T185 362T161 325T144 293L137 279Q135 278 121 278H107Q101 284 101 286T105 299Q126 348 164 391T252 441Q253 441 260 441T272 442Q296 441 316 432Q341 418 354 401T367 348V332L318 133Q267 -67 264 -75Q246 -125 194 -164T75 -204Q25 -204 7 -183T-12 -137Q-12 -110 7 -91T53 -71Q70 -71 82 -81T95 -112Q95 -148 63 -167Q69 -168 77 -168Q111 -168 139 -140T182 -74L193 -32Q204 11 219 72T251 197T278 308T289 365Q289 372 288 376Z"></path>
<path stroke-width="1" id="E1-MJMAIN-2208" d="M84 250Q84 372 166 450T360 539Q361 539 377 539T419 540T469 540H568Q583 532 583 520Q583 511 570 501L466 500Q355 499 329 494Q280 482 242 458T183 409T147 354T129 306T124 272V270H568Q583 262 583 250T568 230H124V228Q124 207 134 177T167 112T231 48T328 7Q355 1 466 0H570Q583 -10 583 -20Q583 -32 568 -40H471Q464 -40 446 -40T417 -41Q262 -41 172 45Q84 127 84 250Z"></path>
</defs>
<g stroke="currentColor" fill="currentColor" stroke-width="0" transform="matrix(1 0 0 -1 0 0)">
<g transform="translate(29748,0)">
<g id="mjx-eqn-5.3.17" transform="translate(0,108)">
 <use xlink:href="#E1-MJMAIN-28"></use>
 <use xlink:href="#E1-MJMAIN-35" x="389" y="0"></use>
 <use xlink:href="#E1-MJMAIN-2E" x="890" y="0"></use>
 <use xlink:href="#E1-MJMAIN-33" x="1168" y="0"></use>
 <use xlink:href="#E1-MJMAIN-2E" x="1669" y="0"></use>
 <use xlink:href="#E1-MJMAIN-31" x="1947" y="0"></use>
 <use xlink:href="#E1-MJMAIN-37" x="2448" y="0"></use>
 <use xlink:href="#E1-MJMAIN-29" x="2948" y="0"></use>
</g>
</g>
<g transform="translate(167,0)">
<g transform="translate(-11,0)">
<g transform="translate(0,108)">
 <use xlink:href="#E1-MJMATHI-77" x="142" y="0"></use>
 <use xlink:href="#E1-MJMAIN-2192" x="0" y="-704"></use>
 <use xlink:href="#E1-MJMAIN-3A" x="1278" y="0"></use>
 <use xlink:href="#E1-MJAMS-52" x="1834" y="0"></use>
 <use xlink:href="#E1-MJMAIN-D7" x="2779" y="0"></use>
 <use xlink:href="#E1-MJAMS-52" x="3780" y="0"></use>
 <use xlink:href="#E1-MJMAIN-2192" x="4780" y="0"></use>
 <use xlink:href="#E1-MJAMS-43" x="6058" y="0"></use>
 <use xlink:href="#E1-MJMAIN-2C" x="6781" y="0"></use>
<g transform="translate(8226,0)">
 <use xlink:href="#E1-MJSZ2-28"></use>
<g transform="translate(597,0)">
 <use xlink:href="#E1-MJMATHI-75" x="214" y="0"></use>
 <use xlink:href="#E1-MJMAIN-2192" x="0" y="-704"></use>
 <use xlink:href="#E1-MJMAIN-2C" x="1000" y="0"></use>
<g transform="translate(1445,0)">
 <use xlink:href="#E1-MJMAIN-49" x="0" y="0"></use>
 <use xlink:href="#E1-MJMAIN-64" x="361" y="0"></use>
<g transform="translate(918,-150)">
 <use transform="scale(0.707)" xlink:href="#E1-MJMATHI-4D" x="0" y="0"></use>
 <use transform="scale(0.707)" xlink:href="#E1-MJMATHI-55" x="1051" y="0"></use>
</g>
</g>
</g>
 <use xlink:href="#E1-MJSZ2-29" x="4347" y="-1"></use>
</g>
 <use xlink:href="#E1-MJMAIN-21A6" x="13448" y="0"></use>
<g transform="translate(14727,0)">
 <use xlink:href="#E1-MJSZ2-28"></use>
<g transform="translate(597,0)">
 <use xlink:href="#E1-MJMATHI-75" x="214" y="0"></use>
 <use xlink:href="#E1-MJMAIN-2192" x="0" y="-704"></use>
</g>
 <use xlink:href="#E1-MJSZ2-29" x="1598" y="-1"></use>
</g>
 <use xlink:href="#E1-MJMAIN-2661" x="17256" y="0"></use>
<g transform="translate(18367,0)">
 <use xlink:href="#E1-MJMAIN-28" x="0" y="0"></use>
<g transform="translate(389,0)">
 <use xlink:href="#E1-MJMAIN-49" x="0" y="0"></use>
 <use xlink:href="#E1-MJMAIN-64" x="361" y="0"></use>
<g transform="translate(918,-150)">
 <use transform="scale(0.707)" xlink:href="#E1-MJMATHI-4D" x="0" y="0"></use>
 <use transform="scale(0.707)" xlink:href="#E1-MJMATHI-55" x="1051" y="0"></use>
</g>
</g>
 <use xlink:href="#E1-MJMAIN-29" x="2693" y="0"></use>
</g>
 <use xlink:href="#E1-MJMAIN-3D" x="21728" y="0"></use>
 <use xlink:href="#E1-MJMATHI-69" x="22785" y="0"></use>
<g transform="translate(23297,0)">
 <use xlink:href="#E1-MJMAIN-2662" x="111" y="0"></use>
 <use xlink:href="#E1-MJMAIN-2192" x="0" y="-855"></use>
</g>
 <use xlink:href="#E1-MJMATHI-6A" x="24464" y="0"></use>
 <use xlink:href="#E1-MJMAIN-2C" x="24876" y="0"></use>
 <use xlink:href="#E1-MJMATHI-6A" x="26322" y="0"></use>
 <use xlink:href="#E1-MJMAIN-2208" x="27012" y="0"></use>
 <use xlink:href="#E1-MJAMS-52" x="27957" y="0"></use>
 <use xlink:href="#E1-MJMAIN-2E" x="28680" y="0"></use>
</g>
</g>
</g>
</g>
</svg>